# xmcd
#
# Track frame offsets: 
#        150
#        42525
#        86705
#        112022
#        164205
#        206665
#
# Disc length: 3327 seconds
#
# Revision: 57
# Processed by: cddbd v1.5.2PL0 Copyright (c) Steve Scherf et al.
# Submitted via: ExactAudioCopy v1.3
#
DISCID=590cfd06
DTITLE=Miles Davis - Kind Of Blue
DYEAR=1959
DGENRE=Jazz
TTITLE0=So What
TTITLE1=Freddie Freeloader
TTITLE2=Blue In Green
TTITLE3=All Blues
TTITLE4=Flamenco Sketches
TTITLE5=Flamenco Sketches [Alternate]
EXTD=
EXTT0=
EXTT1=
EXTT2=
EXTT3=
EXTT4=
EXTT5=
PLAYORDER=
